<svg xmlns="http://www.w3.org/2000/svg" class="rune-icon rune-art-mid" width="104" height="104" viewBox="0 0 64 64" data-rune-art="engraved-v2" data-rune-tier="mid" data-rune-art-id="r13" role="img" aria-label="冰爆 · 中阶 · 双纹"><title>冰爆 · 中阶 · 双纹</title><defs><linearGradient id="rune-art-13-metal" x1="0" y1="0" x2=".7" y2="1"><stop stop-color="#fff6da"/><stop offset=".3" stop-color="#c1d1cc"/><stop offset=".5" stop-color="#fff6da"/><stop offset=".7" stop-color="#c1d1cc"/><stop offset="1" stop-color="#607f84"/></linearGradient><radialGradient id="rune-art-13-well" cx=".4" cy=".35" r=".7"><stop stop-color="#304f6e"/><stop offset="1" stop-color="#132e30"/></radialGradient><linearGradient id="rune-art-13-core" x1="0" y1="0" x2="1" y2="1"><stop stop-color="#f2ffff"/><stop offset=".45" stop-color="#a0dceb"/><stop offset="1" stop-color="#304f6e"/></linearGradient><linearGradient id="rune-art-13-gem" x1="0" y1="0" x2="1" y2="1"><stop stop-color="#edf2ff"/><stop offset=".3" stop-color="#91a5d5"/><stop offset=".6" stop-color="#506793"/><stop offset="1" stop-color="#b6a1d4"/></linearGradient><clipPath id="rune-art-13-body"><circle cx="32" cy="35" r="19.5"/></clipPath></defs><path d="M17 11H47L58 22V47L46 59H18L6 47V22Z" fill="#19342e" fill-rule="evenodd" stroke="#20352c" stroke-width="2.6" stroke-linejoin="round" stroke-linecap="round"/><path d="M17 11H47L58 22V47L46 59H18L6 47V22Z" fill="url(#rune-art-13-metal)" fill-rule="evenodd" stroke="#e8d6ab" stroke-width="0.65" stroke-linejoin="round" stroke-linecap="round"/><path d="M17 15H46L54 22V46L45 55H19L10 46V22Z" fill="none" stroke="#edf4df" stroke-width="1.2" stroke-linecap="round" stroke-linejoin="round" opacity="1"/><path d="M14 11Q7 0 18 4Q28 8 19 11M50 11Q57 0 46 4Q36 8 45 11" fill="none" stroke="#c8d4c9" stroke-width="2.6" stroke-linecap="round" stroke-linejoin="round" opacity="1"/><circle cx="32" cy="35" r="21" fill="url(#rune-art-13-well)" stroke="#29453e" stroke-width="1.3"/><circle cx="32" cy="35" r="18.7" fill="none" stroke="#e0dac4" stroke-width=".55" opacity=".8"/><path d="M18 25Q25 17 35 18M17 43Q23 53 36 52" fill="none" stroke="#fff9db" stroke-width="0.8" stroke-linecap="round" stroke-linejoin="round" opacity="0.25"/><path d="M29.5 55l2 3-2 3-2-3Z" fill="url(#rune-art-13-metal)" fill-rule="evenodd" stroke="#62523a" stroke-width="0.6" stroke-linejoin="round" stroke-linecap="round"/><path d="M34.5 55l2 3-2 3-2-3Z" fill="url(#rune-art-13-metal)" fill-rule="evenodd" stroke="#62523a" stroke-width="0.6" stroke-linejoin="round" stroke-linecap="round"/><g clip-path="url(#rune-art-13-body)"><g transform="rotate(0 32 34)"><path d="M32 34 29 20 32 13 35 20Z" fill="url(#rune-art-13-core)" fill-rule="evenodd" stroke="#f2ffff" stroke-width="0.65" stroke-linejoin="round" stroke-linecap="round"/></g><g transform="rotate(60 32 34)"><path d="M32 34 29 20 32 13 35 20Z" fill="url(#rune-art-13-core)" fill-rule="evenodd" stroke="#f2ffff" stroke-width="0.65" stroke-linejoin="round" stroke-linecap="round"/></g><g transform="rotate(120 32 34)"><path d="M32 34 29 20 32 13 35 20Z" fill="url(#rune-art-13-core)" fill-rule="evenodd" stroke="#f2ffff" stroke-width="0.65" stroke-linejoin="round" stroke-linecap="round"/></g><g transform="rotate(180 32 34)"><path d="M32 34 29 20 32 13 35 20Z" fill="url(#rune-art-13-core)" fill-rule="evenodd" stroke="#f2ffff" stroke-width="0.65" stroke-linejoin="round" stroke-linecap="round"/></g><g transform="rotate(240 32 34)"><path d="M32 34 29 20 32 13 35 20Z" fill="url(#rune-art-13-core)" fill-rule="evenodd" stroke="#f2ffff" stroke-width="0.65" stroke-linejoin="round" stroke-linecap="round"/></g><g transform="rotate(300 32 34)"><path d="M32 34 29 20 32 13 35 20Z" fill="url(#rune-art-13-core)" fill-rule="evenodd" stroke="#f2ffff" stroke-width="0.65" stroke-linejoin="round" stroke-linecap="round"/></g><path d="M32 8 37 24 52 16 43 31 56 39 39 40 40 56 31 42 16 52 21 36 7 29 24 26 Z M26 27 39 37" fill="none" stroke="#f2ffff" stroke-width="1.15" stroke-linecap="round" stroke-linejoin="round" opacity="0.9"/></g><path d="M47 21l1 3 3 1-3 1-1 3-1-3-3-1 3-1Z" fill="#f2ffff" fill-rule="evenodd" stroke="#f2ffff" stroke-width="0.4" stroke-linejoin="round" stroke-linecap="round"/></svg>