<svg xmlns="http://www.w3.org/2000/svg" class="rune-icon rune-art-legend" width="104" height="104" viewBox="0 0 64 64" data-rune-art="engraved-v2" data-rune-tier="legend" data-rune-art-id="r28" role="img" aria-label="太虚归墟 · 绝世 · 五翼"><title>太虚归墟 · 绝世 · 五翼</title><defs><linearGradient id="rune-art-28-metal" x1="0" y1="0" x2=".7" y2="1"><stop stop-color="#fff6ca"/><stop offset=".3" stop-color="#f0be57"/><stop offset=".5" stop-color="#fff6ca"/><stop offset=".7" stop-color="#f0be57"/><stop offset="1" stop-color="#915e28"/></linearGradient><radialGradient id="rune-art-28-well" cx=".4" cy=".35" r=".7"><stop stop-color="#53456c"/><stop offset="1" stop-color="#132e30"/></radialGradient><linearGradient id="rune-art-28-core" x1="0" y1="0" x2="1" y2="1"><stop stop-color="#ffe6bc"/><stop offset=".45" stop-color="#bb9bd3"/><stop offset="1" stop-color="#53456c"/></linearGradient><linearGradient id="rune-art-28-gem" x1="0" y1="0" x2="1" y2="1"><stop stop-color="#edf2ff"/><stop offset=".3" stop-color="#91a5d5"/><stop offset=".6" stop-color="#506793"/><stop offset="1" stop-color="#b6a1d4"/></linearGradient><clipPath id="rune-art-28-body"><circle cx="32" cy="35" r="19.5"/></clipPath></defs><path d="M19 13H45L58 26V45L45 59H19L6 46V26Z" fill="#19342e" fill-rule="evenodd" stroke="#20352c" stroke-width="2.6" stroke-linejoin="round" stroke-linecap="round"/><path d="M19 13H45L58 26V45L45 59H19L6 46V26Z" fill="url(#rune-art-28-metal)" fill-rule="evenodd" stroke="#e8d6ab" stroke-width="0.65" stroke-linejoin="round" stroke-linecap="round"/><path d="M8 29Q2 21 2 11L12 25Z" fill="url(#rune-art-28-metal)" fill-rule="evenodd" stroke="#ffedb5" stroke-width="0.5" stroke-linejoin="round" stroke-linecap="round"/><path d="M56 29Q62 21 62 11L52 25Z" fill="url(#rune-art-28-metal)" fill-rule="evenodd" stroke="#ffedb5" stroke-width="0.5" stroke-linejoin="round" stroke-linecap="round"/><path d="M6.5 34Q1.7 26 3 17L12.5 30Z" fill="url(#rune-art-28-metal)" fill-rule="evenodd" stroke="#ffedb5" stroke-width="0.5" stroke-linejoin="round" stroke-linecap="round"/><path d="M57.5 34Q62.3 26 61 17L51.5 30Z" fill="url(#rune-art-28-metal)" fill-rule="evenodd" stroke="#ffedb5" stroke-width="0.5" stroke-linejoin="round" stroke-linecap="round"/><path d="M5 39Q1.4 31 4 23L13 35Z" fill="url(#rune-art-28-metal)" fill-rule="evenodd" stroke="#ffedb5" stroke-width="0.5" stroke-linejoin="round" stroke-linecap="round"/><path d="M59 39Q62.6 31 60 23L51 35Z" fill="url(#rune-art-28-metal)" fill-rule="evenodd" stroke="#ffedb5" stroke-width="0.5" stroke-linejoin="round" stroke-linecap="round"/><path d="M3.5 44Q1.1 36 5 29L13.5 40Z" fill="url(#rune-art-28-metal)" fill-rule="evenodd" stroke="#ffedb5" stroke-width="0.5" stroke-linejoin="round" stroke-linecap="round"/><path d="M60.5 44Q62.9 36 59 29L50.5 40Z" fill="url(#rune-art-28-metal)" fill-rule="evenodd" stroke="#ffedb5" stroke-width="0.5" stroke-linejoin="round" stroke-linecap="round"/><path d="M16 18 14 8 24 13 23 4 29 10 32 1 35 10 41 4 40 13 50 8 48 18Z" fill="url(#rune-art-28-metal)" fill-rule="evenodd" stroke="#ffefbf" stroke-width="0.7" stroke-linejoin="round" stroke-linecap="round"/><path d="M19 16H45" fill="none" stroke="#91632e" stroke-width="1.3" stroke-linecap="round" stroke-linejoin="round" opacity="1"/><circle cx="32" cy="35" r="21" fill="url(#rune-art-28-well)" stroke="#29453e" stroke-width="1.3"/><circle cx="32" cy="35" r="18.7" fill="none" stroke="#e0dac4" stroke-width=".55" opacity=".8"/><path d="M18 25Q25 17 35 18M17 43Q23 53 36 52" fill="none" stroke="#fff9db" stroke-width="0.8" stroke-linecap="round" stroke-linejoin="round" opacity="0.25"/><path d="M22 55l2 3-2 3-2-3Z" fill="url(#rune-art-28-metal)" fill-rule="evenodd" stroke="#62523a" stroke-width="0.6" stroke-linejoin="round" stroke-linecap="round"/><path d="M27 55l2 3-2 3-2-3Z" fill="url(#rune-art-28-metal)" fill-rule="evenodd" stroke="#62523a" stroke-width="0.6" stroke-linejoin="round" stroke-linecap="round"/><path d="M32 55l2 3-2 3-2-3Z" fill="url(#rune-art-28-metal)" fill-rule="evenodd" stroke="#62523a" stroke-width="0.6" stroke-linejoin="round" stroke-linecap="round"/><path d="M37 55l2 3-2 3-2-3Z" fill="url(#rune-art-28-metal)" fill-rule="evenodd" stroke="#62523a" stroke-width="0.6" stroke-linejoin="round" stroke-linecap="round"/><path d="M42 55l2 3-2 3-2-3Z" fill="url(#rune-art-28-metal)" fill-rule="evenodd" stroke="#62523a" stroke-width="0.6" stroke-linejoin="round" stroke-linecap="round"/><g clip-path="url(#rune-art-28-body)"><path d="M13 32Q24 17 41 25Q54 37 38 46Q22 52 23 35Q27 24 37 30Q44 37 32 41Q38 39 35 35Q29 31 29 37Q31 46 42 39Q47 29 34 28Q22 24 18 36Z" fill="url(#rune-art-28-core)" fill-rule="evenodd" stroke="#ffe6bc" stroke-width="0.7" stroke-linejoin="round" stroke-linecap="round"/><ellipse cx="32" cy="35" rx="21" ry="14" fill="none" stroke="#f2d68b" stroke-width="1.4"/><path d="M31 29 38 35 32 43 25 36Z" fill="#53456c" fill-rule="evenodd" stroke="#ffe6bc" stroke-width="0.7" stroke-linejoin="round" stroke-linecap="round"/><path d="M8 30 Q31 9 56 30 Q36 56 8 30 M20 29 Q36 17 42 29 Q39 44 26 39 Q19 34 29 29 M9 42 Q29 56 52 44 M11 17 17 12 M50 17 56 22" fill="none" stroke="#ffe6bc" stroke-width="1.15" stroke-linecap="round" stroke-linejoin="round" opacity="0.9"/></g><path d="M47 21l1 3 3 1-3 1-1 3-1-3-3-1 3-1Z" fill="#ffe6bc" fill-rule="evenodd" stroke="#ffe6bc" stroke-width="0.4" stroke-linejoin="round" stroke-linecap="round"/></svg>